<?xml version="1.0" encoding="UTF-8"?>
<svg width="200" height="200" viewBox="0 0 200 200" xmlns="http://www.w3.org/2000/svg">
    <!-- Left Boot -->
    <path d="M40 120 C 40 100, 60 100, 80 100 C 100 100, 100 120, 100 140 C 100 160, 80 160, 60 160 C 40 160, 40 140, 40 120" 
          fill="#2a2a2a" stroke="#ff0000" stroke-width="2"/>
    
    <!-- Right Boot -->
    <path d="M120 120 C 120 100, 140 100, 160 100 C 180 100, 180 120, 180 140 C 180 160, 160 160, 140 160 C 120 160, 120 140, 120 120" 
          fill="#2a2a2a" stroke="#ff0000" stroke-width="2"/>
    
    <!-- Boot Details -->
    <path d="M60 120 L 80 120" stroke="#ff0000" stroke-width="1"/>
    <path d="M140 120 L 160 120" stroke="#ff0000" stroke-width="1"/>
    
    <!-- Glowing Effect -->
    <circle cx="100" cy="100" r="30" fill="none" stroke="#ff0000" stroke-width="1" opacity="0.3">
        <animate attributeName="r" values="30;35;30" dur="2s" repeatCount="indefinite"/>
    </circle>
</svg> 